<svg xmlns="http://www.w3.org/2000/svg" viewBox="0 0 64 64" role="img" aria-label=" 5:>@4">
  <defs>
    <linearGradient id="cup" x1="0%" y1="0%" x2="0%" y2="100%">
      <stop offset="0%" stop-color="#fde047"/>
      <stop offset="100%" stop-color="#b8860b"/>
    </linearGradient>
    <linearGradient id="base" x1="0%" y1="0%" x2="100%" y2="0%">
      <stop offset="0%" stop-color="#8b0000"/>
      <stop offset="100%" stop-color="#e31837"/>
    </linearGradient>
  </defs>
  <path d="M18 14 H46 V28 C46 38 40 44 32 44 C24 44 18 38 18 28 Z" fill="url(#cup)" stroke="#a16207" stroke-width="2"/>
  <path d="M14 18 C10 18 8 22 8 26 C8 30 12 32 16 30" fill="none" stroke="url(#cup)" stroke-width="3" stroke-linecap="round"/>
  <path d="M50 18 C54 18 56 22 56 26 C56 30 52 32 48 30" fill="none" stroke="url(#cup)" stroke-width="3" stroke-linecap="round"/>
  <rect x="24" y="44" width="16" height="5" rx="1" fill="url(#base)"/>
  <rect x="20" y="49" width="24" height="6" rx="2" fill="#14141a" stroke="url(#base)" stroke-width="1.5"/>
  <polygon points="32,20 34,26 40,26 35,30 37,36 32,32 27,36 29,30 24,26 30,26" fill="#fff" opacity="0.9"/>
</svg>
