<svg xmlns="http://www.w3.org/2000/svg" viewBox="0 0 64 64" role="img" aria-label="5A38105<K9"><defs><linearGradient id="rim" x1="0" y1="0" x2="1" y2="1"><stop offset="0" stop-color="#fff1b8"/><stop offset=".55" stop-color="#e1ab33"/><stop offset="1" stop-color="#8b5a10"/></linearGradient><radialGradient id="face" cx="35%" cy="28%" r="70%"><stop offset="0%" stop-color="#fff8dd"/><stop offset="45%" stop-color="#f2c14d"/><stop offset="100%" stop-color="#b87413"/></radialGradient></defs><circle cx="32" cy="32" r="28" fill="#0e1520" stroke="url(#rim)" stroke-width="2.5"/><circle cx="32" cy="32" r="20" fill="url(#face)"/><path d="M14 11 25 18 22 26 12 20Z" fill="#b71c3a"/><path d="M50 11 39 18 42 26 52 20Z" fill="#b71c3a"/><path d="M18 18h28M25 18v6M39 18v6" fill="none" stroke="#132030" stroke-width="4" stroke-linecap="round"/><circle cx="32" cy="27" r="4" fill="#132030"/><path d="M24 23 29 31M40 23 35 31M32 31v12M26 43h12" fill="none" stroke="#132030" stroke-width="4" stroke-linecap="round"/><circle cx="14" cy="14" r="8" fill="#101722" stroke="url(#rim)" stroke-width="1.5"/><text x="14" y="18" text-anchor="middle" font-family="Arial Black,Arial,sans-serif" font-size="9" fill="#ffd76b">1</text></svg>
